<svg width="80" height="41" viewBox="0 0 80 41" fill="none" xmlns="http://www.w3.org/2000/svg">
<path d="M53.7801 3.50868C55.5992 3.95734 57.4184 4.28923 59.1587 4.8731C62.894 6.1023 66.6354 7.38067 70.2797 8.868C73.1168 10.0268 75.5944 11.9373 77.4532 14.3994C80.855 18.8676 80.849 23.8704 77.4532 28.314C75.7231 30.4457 73.6125 32.2284 71.2318 33.5688C66.1503 36.6049 60.6079 38.3258 54.8594 39.3768C44.8531 41.2228 34.6241 41.4778 24.5403 40.1327C19.3944 39.5431 14.3735 38.1283 9.66577 35.9412C7.41151 34.9211 5.33827 33.532 3.52918 31.8295C-0.45475 27.9206 -1.10358 22.8686 1.77674 18.0686C3.34559 15.5718 5.38821 13.4159 7.78599 11.7259C13.8809 7.25706 20.7989 4.07404 28.1301 2.36553C39.7216 -0.548095 51.8129 -0.768701 63.5004 1.7202C64.4468 1.93108 65.3802 2.19786 66.2958 2.51918C67.648 2.98627 68.115 3.54556 67.8845 4.36298C67.6541 5.1804 66.9871 5.31561 65.5924 5.03289C62.4918 4.406 59.383 3.82828 56.2662 3.29972C55.449 3.23202 54.6276 3.23202 53.8104 3.29972L53.7801 3.50868ZM37.0682 38.2951C41.7676 37.8956 46.4853 37.6497 51.1605 37.0659C57.0221 36.4164 62.7257 34.7293 68.0119 32.0815C70.4374 30.8523 72.8023 29.408 74.5487 27.2446C75.5563 26.0601 76.3359 24.6946 76.8469 23.2189C77.8171 20.066 76.4285 17.4601 74.3546 15.2291C72.694 13.4671 70.6772 12.0896 68.4424 11.1912C56.721 6.18834 44.5691 4.03724 31.8654 5.46926C30.4222 5.6352 28.973 6.20678 27.4692 5.6352C27.166 5.51843 26.7172 5.73969 26.3473 5.85031C20.6752 7.46866 15.2981 10.0048 10.4237 13.3607C8.31005 14.7653 6.43951 16.5138 4.88748 18.5357C1.73429 22.8379 2.22546 27.0786 6.31248 30.4589C7.35644 31.3392 8.49324 32.0998 9.70215 32.7268C11.5484 33.6658 13.4571 34.4729 15.4143 35.1422C22.4362 37.4899 29.7128 38.0308 37.0682 38.2951Z" fill="#3840F7"/>
</svg>
